<svg t="1690040094961" class="icon" viewBox="0 0 1024 1024" version="1.1" xmlns="http://www.w3.org/2000/svg" p-id="15892" width="32" height="32"><path d="M512.013621 511.927945m-353.861095 218.719741a416 416 0 1 0 707.722191-437.439482 416 416 0 1 0-707.722191 437.439482Z" p-id="15893"></path><path d="M512 384a32 32 0 0 0-32 32v320a32 32 0 0 0 64 0v-320a32 32 0 0 0-32-32z" fill="#FFFFFF" opacity=".75" p-id="15894"></path><path d="M512 256a32 32 0 1 0 32 32 32 32 0 0 0-32-32z" fill="#FFFFFF" p-id="15895"></path></svg>