<svg t="1690052850780" class="icon" viewBox="0 0 1024 1024" version="1.1" xmlns="http://www.w3.org/2000/svg" p-id="3089" width="32" height="32"><path d="M861.7 447.5c-14.9-35-36.1-66.4-63.1-93.4-38.2-38.3-85.4-64.9-139-78.3-23.9-6-48.6-8.1-73.3-8.1H336.8v-83.3c0-12.1-14.1-18.8-23.5-11.2l-162 131.3c-13.7 11.1-13.7 32 0 43.1L313.4 479c9.4 7.6 23.5 0.9 23.5-11.2v-83.3h245.3c92.6 0 175.8 67.3 185.1 159.4 10.7 105.8-73 195.8-176.7 195.8h-337c-32.3 0-58.4 26.2-58.4 58.4 0 32.3 26.2 58.4 58.4 58.4h332.8c24.6 0 49.4-2.1 73.3-8.1 53.6-13.4 100.7-40.1 139-78.3 27-27 48.2-58.4 63.1-93.4 15.5-36.4 23.3-75 23.3-114.7-0.1-39.5-8-78.1-23.4-114.5z m0 0" p-id="3090"></path></svg>