<svg t="1691055240971" class="icon" viewBox="0 0 1063 1024" version="1.1" xmlns="http://www.w3.org/2000/svg" p-id="13264" width="32" height="32"><path d="M545.004308 0c-282.781538 0-512 229.218462-512 512s229.218462 512 512 512 512-229.218462 512-512-229.218462-512-512-512z m0 970.121846C292.391385 970.121846 86.882462 764.612923 86.882462 512S292.391385 53.878154 545.004308 53.878154C797.656615 53.878154 1003.126154 259.387077 1003.126154 512s-205.469538 458.121846-458.121846 458.121846zM583.128615 512l169.511385-169.629538a26.584615 26.584615 0 0 0 0-38.006154 26.584615 26.584615 0 0 0-38.006154 0l-169.629538 169.511384-169.629539-169.511384a26.584615 26.584615 0 0 0-38.006154 0 26.584615 26.584615 0 0 0 0 38.006154L506.88 512l-169.511385 169.629538a26.584615 26.584615 0 0 0 0 38.006154 26.860308 26.860308 0 0 0 19.02277 7.955693 26.860308 26.860308 0 0 0 18.983384-7.955693l169.629539-169.511384 169.629538 169.511384a26.860308 26.860308 0 0 0 19.022769 7.955693 26.860308 26.860308 0 0 0 18.983385-7.955693 26.584615 26.584615 0 0 0 0-38.006154L583.128615 512z" p-id="13265"></path></svg>