<svg t="1690038047776" class="icon" viewBox="0 0 1024 1024" version="1.1" xmlns="http://www.w3.org/2000/svg" p-id="7652" width="32" height="32"><path d="M510.882038 66.522066c-246.535953 0-446.38049 199.845561-446.38049 446.381513 0 246.50423 199.87626 446.37742 446.38049 446.37742 246.50423 0 446.378443-199.87319 446.378443-446.37742C957.260481 266.36865 757.386268 66.522066 510.882038 66.522066L510.882038 66.522066zM787.159362 451.287243l0 0.346901c0 42.361807-16.832364 81.854263-47.14167 110.951975L510.911714 792.805454 277.63474 558.416146c-27.759227-28.907377-43.024909-66.838268-43.024909-106.806561l0-0.318248 0-0.384763c0-85.035722 69.195965-154.262386 154.262386-154.262386 48.611138 0 93.260034 22.565948 122.010845 59.794851 28.745694-37.227879 73.402777-59.794851 122.005728-59.794851 85.068468 0 154.267503 69.194942 154.267503 154.262386l0 0.384763L787.159362 451.287243zM787.159362 451.287243" p-id="7653"></path></svg>