<svg t="1690650162955" class="icon" viewBox="0 0 1024 1024" version="1.1" xmlns="http://www.w3.org/2000/svg" p-id="35716" width="32" height="32"><path d="M308.736 151.552c17.408 0 31.744 14.336 31.744 31.744v190.976c0 17.408-14.336 31.744-31.744 31.744H117.76c-17.408 0-31.744-14.336-31.744-31.744V183.296c0-17.408 14.336-31.744 31.744-31.744h190.976m0-42.496H117.76c-40.96 0-74.24 33.28-74.24 74.24v190.976c0 40.96 33.28 74.24 74.24 74.24h190.976c40.96 0 74.24-33.28 74.24-74.24V183.296c0-40.96-33.28-74.24-74.24-74.24z m0 508.928c17.408 0 31.744 14.336 31.744 31.744v190.976c0 17.408-14.336 31.744-31.744 31.744H117.76c-17.408 0-31.744-14.336-31.744-31.744v-190.976c0-17.408 14.336-31.744 31.744-31.744h190.976m0-42.496H117.76c-40.96 0-74.24 33.28-74.24 74.24v190.976c0 40.96 33.28 74.24 74.24 74.24h190.976c40.96 0 74.24-33.28 74.24-74.24v-190.976c0-40.96-33.28-74.24-74.24-74.24z m671.744-387.584c0 14.336-11.776 26.112-26.112 26.112h-415.232c-14.336 0-26.112-11.776-26.112-26.112s11.776-26.112 26.112-26.112h415.232c14.336 0 26.112 11.776 26.112 26.112z m0 181.76c0 14.336-11.776 26.112-26.112 26.112h-415.232c-14.336 0-26.112-11.776-26.112-26.112s11.776-26.112 26.112-26.112h415.232c14.336 0 26.112 11.776 26.112 26.112z m0 284.672c0 14.336-11.776 26.112-26.112 26.112h-415.232c-14.336 0-26.112-11.776-26.112-26.112s11.776-26.112 26.112-26.112h415.232c14.336 0 26.112 11.776 26.112 26.112z m0 181.76c0 14.336-11.776 26.112-26.112 26.112h-415.232c-14.336 0-26.112-11.776-26.112-26.112s11.776-26.112 26.112-26.112h415.232c14.336 0 26.112 11.776 26.112 26.112z" p-id="35717"></path></svg>