<svg t="1691045256278" class="icon" viewBox="0 0 1024 1024" version="1.1" xmlns="http://www.w3.org/2000/svg" p-id="9388" width="32" height="32"><path d="M893.8 97H130.2C111.9 97 97 111.9 97 130.2v763.6c0 18.3 14.9 33.2 33.2 33.2h763.6c18.3 0 33.2-14.9 33.2-33.2V130.2c0-18.3-14.9-33.2-33.2-33.2zM412.3 252.9c0-7.9 6.5-14.4 14.4-14.4H597c7.9 0 14.4 6.5 14.4 14.4v37.5c0 7.9-6.5 14.4-14.4 14.4H426.7c-7.9 0-14.4-6.5-14.4-14.4v-37.5z m282.2 400.6c0 27.4-22.4 49.8-49.8 49.8H379.1c-27.4 0-49.8-22.4-49.8-49.8v-332c0-27.4 22.4-49.8 49.8-49.8h16.6v30.7c0 10.5 8.6 19.1 19.1 19.1H609c10.5 0 19.1-8.6 19.1-19.1v-30.7h16.6c27.4 0 49.8 22.4 49.8 49.8v332z" p-id="9389"></path><path d="M574.8 437.8H558l31.6-31.6c7-7 7-18.4 0-25.4l-5.5-5.5c-7-7-18.4-7-25.4 0l-46.9 46.9-46.8-46.9c-7-7-18.4-7-25.4 0l-5.5 5.5c-7 7-7 18.4 0 25.4l31.6 31.6h-16.8c-11.1 0-20.1 9-20.1 20.1v3.5c0 11.1 9 20.1 20.1 20.1h41.4v22.1h-41.4c-11.1 0-20.1 9-20.1 20.1v3.5c0 11.1 9 20.1 20.1 20.1h41.4V585c0 11 8.9 19.9 19.9 19.9h3.8c11 0 19.9-8.9 19.9-19.9v-37.8h40.8c11.1 0 20.1-9 20.1-20.1v-3.5c0-11.1-9-20.1-20.1-20.1H534v-22.1h40.8c11.1 0 20.1-9 20.1-20.1v-3.5c0-11-9-20-20.1-20z" p-id="9390"></path></svg>