<svg t="1690947705444" class="icon" viewBox="0 0 1024 1024" version="1.1" xmlns="http://www.w3.org/2000/svg" p-id="2384" width="32" height="32"><path d="M512 512m-512 0a512 512 0 1 0 1024 0 512 512 0 1 0-1024 0Z" fill="#09A1E8" p-id="2385"></path><path d="M457.728 686.08c-8.192 0-17.408-3.072-23.552-10.24l-174.08-174.08a33.9968 33.9968 0 0 1 0-48.128c13.312-13.312 34.816-13.312 48.128 0l149.504 149.504 258.048-258.048c13.312-13.312 34.816-13.312 48.128 0 13.312 13.312 13.312 34.816 0 48.128L482.304 676.864c-7.168 6.144-15.36 9.216-24.576 9.216z" fill="#FFFFFF" p-id="2386"></path></svg>