<svg t="1690947786107" class="icon" viewBox="0 0 1024 1024" version="1.1" xmlns="http://www.w3.org/2000/svg" p-id="3745" width="32" height="32"><path d="M512 0C230.4 0 0 230.4 0 512s230.4 512 512 512 512-230.4 512-512S793.6 0 512 0z m0.853 810.667c-28.16 0.853-52.053-22.187-52.053-50.347 0-26.453 23.04-49.493 50.347-50.347 26.453-0.853 51.2 21.334 52.053 47.787 0.853 28.16-21.333 52.053-50.347 52.907zM563.2 576.853c0 36.694-20.48 59.734-52.053 58.88-30.72 0-50.347-23.04-50.347-60.586v-302.08c0-37.547 19.627-59.734 50.347-60.587s52.053 22.187 52.053 58.88v305.493z" fill="#FF5B5F" p-id="3746"></path></svg>