<svg t="1690037263851" class="icon" viewBox="0 0 1024 1024" version="1.1" xmlns="http://www.w3.org/2000/svg" p-id="4149" width="32" height="32"><path d="M517.12 696.32c-14.336 0-25.6 11.264-25.6 25.6s11.264 25.6 25.6 25.6 25.6-11.264 25.6-25.6-11.264-25.6-25.6-25.6zM652.288 276.48H381.952c-7.168 0-13.312 7.168-13.312 15.36V665.6h296.96V291.84c0-8.192-6.144-15.36-13.312-15.36z m-65.536 112.64L542.72 432.128h26.624c6.144 0 11.264 5.12 11.264 11.264s-5.12 11.264-11.264 11.264h-41.984v28.672h41.984c6.144 0 11.264 5.12 11.264 11.264 0 6.144-5.12 11.264-11.264 11.264h-41.984V552.96c0 6.144-5.12 11.264-11.264 11.264-6.144 0-11.264-5.12-11.264-11.264v-48.128h-41.984c-6.144 0-11.264-5.12-11.264-11.264 0-6.144 5.12-11.264 11.264-11.264h41.984v-28.672h-41.984c-6.144 0-11.264-5.12-11.264-11.264s5.12-11.264 11.264-11.264h26.624L445.44 389.12c-4.096-4.096-4.096-11.264 0-15.36 4.096-4.096 11.264-4.096 15.36 0l54.272 55.296 54.272-54.272c4.096-4.096 11.264-4.096 15.36 0 6.144 3.072 6.144 10.24 2.048 14.336z" p-id="4150"></path><path d="M512 0C229.376 0 0 229.376 0 512s229.376 512 512 512 512-229.376 512-512S794.624 0 512 0z m192.512 754.688c0 24.576-19.456 44.032-44.032 44.032H371.712C348.16 798.72 327.68 778.24 327.68 754.688V269.312c0-23.552 20.48-44.032 44.032-44.032h288.768c24.576 0 44.032 19.456 44.032 44.032v485.376z" p-id="4151"></path></svg>