<svg t="1690052166543" class="icon" viewBox="0 0 1024 1024" version="1.1" xmlns="http://www.w3.org/2000/svg" p-id="2105" width="32" height="32"><path d="M857.5 396.1c-7.3 0-14.7-2.6-20.5-8L594.3 148.4c-12.5-11.3-13.4-30.5-2-43.1s30.5-13.4 43.1-2L878 343c12.5 11.3 13.4 30.5 2 43.1-6 6.7-14.3 10-22.5 10z" p-id="2106"></path><path d="M837.2 380.1H674.5c-39.3 0-71.1-32-71.1-71.1V146.2c0-16.9 13.7-30.5 30.5-30.5 16.9 0 30.5 13.7 30.5 30.5v162.6c0 5.7 4.7 10.2 10.2 10.2h162.6c16.9 0 30.5 13.7 30.5 30.5-0.1 17-13.7 30.6-30.5 30.6zM694.8 745.8H329c-16.9 0-30.5-13.7-30.5-30.5s13.7-30.5 30.5-30.5h365.8c16.9 0 30.5 13.7 30.5 30.5s-13.6 30.5-30.5 30.5zM694.8 563H329c-16.9 0-30.5-13.7-30.5-30.5S312.2 502 329 502h365.8c16.9 0 30.5 13.7 30.5 30.5S711.7 563 694.8 563z" p-id="2107"></path><path d="M816.7 928.6H207.1c-39.3 0-71.1-31.9-71.1-71.1V166.6c0-39.3 31.9-71.1 71.1-71.1h407.6c16.9 0 30.5 13.7 30.5 30.5s-13.7 30.5-30.5 30.5H207.1c-5.7 0-10.2 4.5-10.2 10.2v690.9c0 5.7 4.5 10.2 10.2 10.2h609.6c5.7 0 10.2-4.5 10.2-10.2V369.5c0-16.9 13.7-30.5 30.5-30.5s30.5 13.7 30.5 30.5v488c0 39.3-31.9 71.1-71.2 71.1z" p-id="2108"></path></svg>